Coordinates
version=1
nRows=4
nColumns=63
inDegrees=yes

Units are S.I. units (second, meters, Newtons, ...)
If the header above contains a line with 'inDegrees', this indicates whether rotational values are in degrees (yes) or radians (no).

endheader
time	pelvis_tilt	pelvis_list	pelvis_rotation	pelvis_tx	pelvis_ty	pelvis_tz	hip_flexion_r	hip_adduction_r	hip_rotation_r	knee_angle_r	knee_angle_r_beta	ankle_angle_r	subtalar_angle_r	mtp_angle_r	hip_flexion_l	hip_adduction_l	hip_rotation_l	knee_angle_l	knee_angle_l_beta	ankle_angle_l	subtalar_angle_l	mtp_angle_l	L5_S1_Flex_Ext	L5_S1_Lat_Bending	L5_S1_axial_rotation	L4_L5_Flex_Ext	L4_L5_Lat_Bending	L4_L5_axial_rotation	L3_L4_Flex_Ext	L3_L4_Lat_Bending	L3_L4_axial_rotation	L2_L3_Flex_Ext	L2_L3_Lat_Bending	L2_L3_axial_rotation	L1_L2_Flex_Ext	L1_L2_Lat_Bending	L1_L2_axial_rotation	L1_T12_Flex_Ext	L1_T12_Lat_Bending	L1_T12_axial_rotation	Abs_r3	Abs_r2	Abs_r1	Abs_t1	Abs_t2	neck_flexion	neck_bending	neck_rotation	arm_flex_r	arm_add_r	arm_rot_r	elbow_flex_r	pro_sup_r	wrist_flex_r	wrist_dev_r	arm_flex_l	arm_add_l	arm_rot_l	elbow_flex_l	pro_sup_l	wrist_flex_l	wrist_dev_l
      0.00000000	     11.31715040	     -4.13363282	    101.50528787	      0.30402632	      1.07030096	      0.41466534	      1.21388329	      5.58217328	    -23.53631522	     10.57475961	      0.18456437	     36.62816450	     17.64648218	      0.00000000	      7.10943628	     -5.81828230	     -0.46702790	     16.91586003	      0.29523745	     39.96199718	      9.56515229	      0.00000000	      0.18552331	      0.78008801	     -2.21453150	      0.34453533	      1.03751705	     -2.35293971	      0.30479624	      1.89670598	     -2.35293971	      0.21203459	      1.89670598	     -1.93771506	      0.17227694	      1.59075547	     -1.79930684	      0.10600802	      1.20835633	     -1.66089862	      1.32517442	      8.82451157	    -12.31655982	      0.00000000	      0.00000000	     23.32778656	     -2.22276878	      7.06971679	     11.43790257	     -4.76468801	     57.38966789	     40.43921036	      1.51733807	     -9.00385688	     21.01764792	     18.22246657	      2.57644737	     76.63229395	     32.97879820	     27.25305707	      0.99588483	     -0.65805094
      0.01666667	     10.84623691	     -4.17545734	    101.20955942	      0.30524383	      1.07002839	      0.41411737	      1.06138833	      5.21914221	    -23.33894494	     10.44586198	      0.18231468	     37.15756753	     17.64897496	      0.00000000	      7.00345771	     -5.36724243	     -0.33453722	     17.27015624	      0.30142109	     39.64029862	      9.20902118	      0.00000000	      0.17866606	      0.71207684	     -2.15749309	      0.33180074	      0.94706220	     -2.29233641	      0.29353047	      1.73134364	     -2.29233641	      0.20419744	      1.73134364	     -1.88780645	      0.16590930	      1.45206710	     -1.75296314	      0.10208979	      1.10300703	     -1.61811982	      1.27619380	      8.05515568	    -11.99932932	      0.00000000	      0.00000000	     24.30996601	     -1.21709892	      7.28641550	     11.53368219	     -4.41290230	     57.72755783	     40.18094722	      1.58896749	     -7.66524196	     20.05509021	     18.27669078	      2.16693990	     76.10352305	     33.47481902	     27.59776821	      1.18683984	      0.71013284
      0.03333333	     10.52806931	     -4.16070179	    101.05703080	      0.30611719	      1.06988745	      0.41359827	      0.87329646	      5.01441973	    -23.24662001	     10.25652076	      0.17901006	     37.52215667	     17.69090745	      0.00000000	      6.90563736	     -5.09615276	     -0.35142400	     17.53750594	      0.30608722	     39.46436092	      9.12459961	      0.00000000	      0.17081489	      0.66407429	     -2.12050557	      0.31722033	      0.88321880	     -2.25303716	      0.28063178	      1.61463022	     -2.25303716	      0.19522433	      1.61463022	     -1.85544237	      0.15861870	      1.35418029	     -1.72291077	      0.09760363	      1.02865107	     -1.59037917	      1.22011365	      7.51214115	    -11.79361581	      0.00000000	      0.00000000	     24.94806616	     -0.59417885	      7.27581246	     11.48276682	     -4.16374763	     57.71098506	     40.09062006	      1.66723122	     -7.10848522	     19.31202479	     18.29017736	      1.87006008	     75.72736664	     33.85199737	     27.80385917	      1.16221432	      1.52551599
      0.05000000	     10.18707194	     -4.14770303	    100.60255288	      0.30712060	      1.06996290	      0.41292430	      0.70901061	      4.76749106	    -22.69017089	     10.09899353	      0.17626069	     37.78394617	     17.59786915	      0.00000000	      6.66924707	     -4.79741020	     -0.56811593	     17.55364220	      0.30636885	     39.26596111	      8.82068860	      0.00000000	      0.16528871	      0.61831505	     -2.03523308	      0.30695766	      0.82235901	     -2.16243515	      0.27155282	      1.50337120	     -2.16243515	      0.18890846	      1.50337120	     -1.78082894	      0.15348709	      1.26086804	     -1.65362688	      0.09444597	      0.95777001	     -1.52642481	      1.18064071	      6.99450347	    -11.31935582	      0.00000000	      0.00000000	     25.24364593	     -0.15327931	      7.27431430	     11.42221189	     -3.96460916	     57.84201188	     40.01398250	      1.68546390	     -7.05179015	     18.55431404	     18.19147361	      1.61238569	     75.16101431	     34.15232666	     28.44679601	      1.12562383	      2.10867039
